<?xml version="1.0" encoding="UTF-8" standalone="no"?>
<svg
   shape-rendering="geometricPrecision"
   text-rendering="geometricPrecision"
   image-rendering="optimizeQuality"
   fill-rule="evenodd"
   clip-rule="evenodd"
   viewBox="0 0 512 512"
   version="1.1"
   id="svg2"
   sodipodi:docname="snapchat-line-icon.svg"
   inkscape:version="1.4 (86a8ad7, 2024-10-11)"
   xmlns:inkscape="http://www.inkscape.org/namespaces/inkscape"
   xmlns:sodipodi="http://sodipodi.sourceforge.net/DTD/sodipodi-0.dtd"
   xmlns="http://www.w3.org/2000/svg"
   xmlns:svg="http://www.w3.org/2000/svg">
  <defs
     id="defs2" />
  <sodipodi:namedview
     id="namedview2"
     pagecolor="#505050"
     bordercolor="#eeeeee"
     borderopacity="1"
     inkscape:showpageshadow="0"
     inkscape:pageopacity="0"
     inkscape:pagecheckerboard="0"
     inkscape:deskcolor="#505050"
     inkscape:zoom="1.1020922"
     inkscape:cx="88.468097"
     inkscape:cy="341.16927"
     inkscape:window-width="1920"
     inkscape:window-height="991"
     inkscape:window-x="-9"
     inkscape:window-y="-9"
     inkscape:window-maximized="1"
     inkscape:current-layer="g2" />
  <g
     fill-rule="nonzero"
     id="g2">
    <path
       fill="#ffffff"
       d="m 510.99199,385.65567 c -2.22868,-7.38645 -12.91569,-12.58669 -12.91569,-12.58669 h 0.0106 c -0.98698,-0.55186 -1.89968,-1.01882 -2.66379,-1.37965 -17.77632,-8.60693 -33.51499,-18.9225 -46.79151,-30.67078 -10.66579,-9.4241 -19.79273,-19.82457 -27.13674,-30.88304 -8.94653,-13.48877 -13.13856,-24.74887 -14.96394,-30.85119 -0.9976,-3.96916 -0.83841,-5.55046 0,-7.61994 0.71105,-1.72987 2.73808,-3.41729 3.73568,-4.1708 6.01741,-4.24509 15.67499,-10.5066 21.6075,-14.3484 5.13656,-3.32179 9.56207,-6.19784 12.14096,-7.99139 8.35222,-5.837 14.05125,-11.78012 17.4261,-18.1796 4.37244,-8.28853 4.88185,-17.41548 1.48578,-26.39384 -4.5847,-12.10912 -15.88725,-19.33639 -30.23566,-19.33639 -3.20504,0 -6.47376,0.36083 -9.74248,1.07188 -8.21425,1.78294 -16.02521,4.70144 -22.56265,7.2485 a 0.70680755,0.70680755 0 0 1 -0.96576,-0.68983 c 0.70044,-16.18441 1.46456,-37.91927 -0.329,-58.60347 C 397.47827,111.58203 393.63646,95.832741 387.34312,82.110486 381.01793,68.324555 372.82491,58.1045 366.3936,50.749881 360.24883,43.724256 349.50875,33.398074 333.28189,24.111939 310.43269,11.037061 284.43151,4.4147196 256.00002,4.4147196 c -28.3572,0 -54.33716,6.6223414 -77.21819,19.6972194 -17.17139,9.806159 -28.15556,20.90707 -33.16477,26.637942 -6.43131,7.354619 -14.63495,17.574674 -20.96013,31.360605 -6.29335,13.722255 -10.13516,29.471544 -11.74829,48.160554 -1.79355,20.72665 -1.07189,40.74225 -0.329,58.59286 0.0212,0.52002 -0.48818,0.89146 -0.97637,0.70044 -6.52682,-2.54706 -14.348403,-5.46556 -22.55204,-7.2485 -3.258107,-0.71105 -6.537439,-1.07188 -9.742482,-1.07188 -14.348406,0 -25.650959,7.22727 -30.235657,19.33639 -3.396072,8.97836 -2.876048,18.10531 1.485782,26.39384 3.374847,6.39948 9.084493,12.3426 17.426096,18.1796 2.578892,1.79355 7.015012,4.6696 12.140958,7.99139 5.815774,3.76751 15.197424,9.84861 21.236063,14.08308 0.74289,0.53064 3.27933,2.45154 4.09651,4.43612 0.85963,2.12255 1.00821,3.72507 -0.0849,7.93832 -1.86784,6.166 -6.070477,17.27752 -14.857814,30.53281 -7.344006,11.05847 -16.481563,21.45894 -27.147353,30.88304 -13.27652,11.74828 -29.015192,22.06385 -46.791508,30.67078 -0.827793,0.40328 -1.836002,0.91269 -2.929113,1.53884 v -0.0106 c 0,0 -10.6021129,5.43371 -12.6079181,12.43811 -2.9609505,10.34741 4.9136921,20.03683 12.9793641,25.23706 13.15978,8.49019 29.184996,13.05366 38.481744,15.52642 2.589505,0.68983 4.934917,1.31598 7.068075,1.98458 1.337204,0.44574 4.680212,1.70865 6.11293,3.54465 1.804164,2.31358 2.016418,5.20024 2.663795,8.42651 1.040047,5.44433 3.300557,12.21524 10.039638,16.86362 7.407683,5.12595 16.821171,5.48678 28.73926,5.94313 12.46996,0.47757 27.98576,1.07188 45.74085,6.93011 8.22486,2.71685 15.68561,7.30155 24.31376,12.60791 18.03102,11.07969 40.47693,24.86562 78.82071,24.86562 38.36501,0 60.9595,-13.86022 79.11787,-25.00358 8.57509,-5.26391 15.98277,-9.81677 24.02721,-12.46995 17.75509,-5.86884 33.2709,-6.45254 45.74085,-6.93011 11.90748,-0.45635 21.32097,-0.81718 28.73926,-5.94313 7.20605,-4.97737 9.29675,-12.39567 10.23067,-18.0098 0.50941,-2.75931 0.85963,-5.24268 2.45154,-7.28033 1.34782,-1.74048 4.43612,-2.97156 5.90068,-3.47036 2.18622,-0.68983 4.61653,-1.34781 7.30155,-2.05887 9.29675,-2.47276 20.93891,-5.4231 35.12813,-13.43571 16.95913,-9.58329 18.11592,-21.48016 16.35421,-27.32777 z"
       id="path1"
       style="stroke-width:1.06127" />
  </g>
</svg>
